HIERARCHY
ROOT Hips
{
	OFFSET 0.000000 89.005402 0.000000
	CHANNELS 6 Xposition Yposition Zposition Xrotation Yrotation Zrotation
	JOINT Spine
	{
		OFFSET 0.116900 10.681000 0.373400
		CHANNELS 3 Xrotation Yrotation Zrotation
		JOINT Spine1
		{
			OFFSET 0.000000 13.840401 0.053500
			CHANNELS 3 Xrotation Yrotation Zrotation
			JOINT Spine2
			{
				OFFSET 0.000000 14.712700 -0.366200
				CHANNELS 3 Xrotation Yrotation Zrotation
				JOINT Neck
				{
					OFFSET 0.000000 35.415497 -3.314200
					CHANNELS 3 Xrotation Yrotation Zrotation
					JOINT Head
					{
						OFFSET 0.000000 16.899200 1.218300
						CHANNELS 3 Xrotation Yrotation Zrotation
						JOINT HeadTop_End
						{
							OFFSET 0.000000 22.206207 2.192500
							CHANNELS 3 Xrotation Yrotation Zrotation
							End Site
							{
								OFFSET 0.000000 22.314178 0.000000
							}
						}
					}
				}
				JOINT LeftShoulder
				{
					OFFSET 12.896400 26.716293 -4.548400
					CHANNELS 3 Xrotation Yrotation Zrotation
					JOINT LeftArm
					{
						OFFSET 19.027000 -4.857010 -1.718400
						CHANNELS 3 Xrotation Yrotation Zrotation
						JOINT LeftForeArm
						{
							OFFSET 24.179897 0.000000 0.000000
							CHANNELS 3 Xrotation Yrotation Zrotation
							JOINT LeftHand
							{
								OFFSET 27.156403 0.000000 0.000000
								CHANNELS 3 Xrotation Yrotation Zrotation
								JOINT LeftHandIndex1
								{
									OFFSET 16.441200 0.000000 0.000000
									CHANNELS 3 Xrotation Yrotation Zrotation
									JOINT LeftHandIndex2
									{
										OFFSET 4.821899 0.000000 0.000000
										CHANNELS 3 Xrotation Yrotation Zrotation
										JOINT LeftHandIndex3
										{
											OFFSET 6.386497 0.000000 0.000000
											CHANNELS 3 Xrotation Yrotation Zrotation
											JOINT LeftHandIndex4
											{
												OFFSET 5.188988 0.000000 0.000000
												CHANNELS 3 Xrotation Yrotation Zrotation
												End Site
												{
													OFFSET -0.178703 5.185913 0.000177
												}
											}
										}
									}
								}
								JOINT LeftHandThumb1
								{
									OFFSET 6.534897 -5.032593 5.900300
									CHANNELS 3 Xrotation Yrotation Zrotation
									JOINT LeftHandThumb2
									{
										OFFSET 3.818176 -2.204422 2.204423
										CHANNELS 3 Xrotation Yrotation Zrotation
										JOINT LeftHandThumb3
										{
											OFFSET 3.252098 -1.877594 1.877601
											CHANNELS 3 Xrotation Yrotation Zrotation
											JOINT LeftHandThumb4
											{
												OFFSET 5.251778 -3.032120 3.032117
												CHANNELS 3 Xrotation Yrotation Zrotation
												End Site
												{
													OFFSET 0.000023 6.780014 0.000000
												}
											}
										}
									}
								}
							}
						}
					}
				}
				JOINT RightShoulder
				{
					OFFSET -12.896300 26.716293 -4.548400
					CHANNELS 3 Xrotation Yrotation Zrotation
					JOINT RightArm
					{
						OFFSET -19.027000 -4.857010 -1.718400
						CHANNELS 3 Xrotation Yrotation Zrotation
						JOINT RightForeArm
						{
							OFFSET -24.179897 0.000000 0.000000
							CHANNELS 3 Xrotation Yrotation Zrotation
							JOINT RightHand
							{
								OFFSET -27.156403 0.000000 0.000000
								CHANNELS 3 Xrotation Yrotation Zrotation
								JOINT RightHandThumb1
								{
									OFFSET -6.591202 -4.852203 5.988100
									CHANNELS 3 Xrotation Yrotation Zrotation
									JOINT RightHandThumb2
									{
										OFFSET -3.818176 -2.204422 2.204423
										CHANNELS 3 Xrotation Yrotation Zrotation
										JOINT RightHandThumb3
										{
											OFFSET -3.252098 -1.877594 1.877601
											CHANNELS 3 Xrotation Yrotation Zrotation
											JOINT RightHandThumb4
											{
												OFFSET -5.251778 -3.032120 3.032117
												CHANNELS 3 Xrotation Yrotation Zrotation
												End Site
												{
													OFFSET -0.000023 6.780014 0.000000
												}
											}
										}
									}
								}
								JOINT RightHandIndex1
								{
									OFFSET -16.029404 0.000000 0.000000
									CHANNELS 3 Xrotation Yrotation Zrotation
									JOINT RightHandIndex2
									{
										OFFSET -5.213303 0.000000 0.000000
										CHANNELS 3 Xrotation Yrotation Zrotation
										JOINT RightHandIndex3
										{
											OFFSET -6.386528 0.000000 0.000000
											CHANNELS 3 Xrotation Yrotation Zrotation
											JOINT RightHandIndex4
											{
												OFFSET -5.189026 0.000000 0.000000
												CHANNELS 3 Xrotation Yrotation Zrotation
												End Site
												{
													OFFSET 0.236702 5.183624 0.001972
												}
											}
										}
									}
								}
							}
						}
					}
				}
			}
		}
	}
	JOINT LeftUpLeg
	{
		OFFSET 14.073000 -7.904099 -1.463000
		CHANNELS 3 Xrotation Yrotation Zrotation
		JOINT LeftLeg
		{
			OFFSET -0.109806 -34.073280 4.093200
			CHANNELS 3 Xrotation Yrotation Zrotation
			JOINT LeftFoot
			{
				OFFSET 0.109806 -29.899420 -6.319000
				CHANNELS 3 Xrotation Yrotation Zrotation
				JOINT LeftToeBase
				{
					OFFSET 1.551100 -14.988700 20.535801
					CHANNELS 3 Xrotation Yrotation Zrotation
					JOINT LeftToe_End
					{
						OFFSET 0.221200 0.570800 13.248301
						CHANNELS 3 Xrotation Yrotation Zrotation
						End Site
						{
							OFFSET 0.000000 13.262435 0.000000
						}
					}
				}
			}
		}
	}
	JOINT RightUpLeg
	{
		OFFSET -13.839300 -7.904099 -1.463000
		CHANNELS 3 Xrotation Yrotation Zrotation
		JOINT RightLeg
		{
			OFFSET 0.109694 -34.073219 4.093300
			CHANNELS 3 Xrotation Yrotation Zrotation
			JOINT RightFoot
			{
				OFFSET -0.109694 -29.899384 -6.319200
				CHANNELS 3 Xrotation Yrotation Zrotation
				JOINT RightToeBase
				{
					OFFSET -1.551100 -14.988700 20.535801
					CHANNELS 3 Xrotation Yrotation Zrotation
					JOINT RightToe_End
					{
						OFFSET -0.221200 0.570900 13.248299
						CHANNELS 3 Xrotation Yrotation Zrotation
						End Site
						{
							OFFSET 0.000000 13.262440 0.000000
						}
					}
				}
			}
		}
	}
}
MOTION
Frames: 4
Frame Time: 0.033333
10.075338 11.607262 20.756622 82.232254 -4.503780 0.160171 5.866350 -1.454219 -0.740010 -4.486088 -5.972200 1.118935 -3.958525 -6.215178 0.281004 -32.847848 -1.738169 16.074406 -4.002908 25.581377 -5.693286 -0.000001 -0.000000 0.000000 -31.469390 -39.341319 31.251664 -78.954357 -10.646322 -41.574221 0.000017 -47.577653 0.000023 -118.723318 17.231220 24.328195 -0.212816 3.933719 -36.747118 2.942143 5.078903 -60.144597 0.513671 2.400826 -24.150507 -0.000003 -0.000000 0.000002 3.819001 9.749246 2.307832 18.291129 -1.382134 7.566208 -4.377484 -9.658862 1.116650 -0.000000 -0.000001 -0.000001 -20.836356 19.254080 15.826117 -55.235139 50.336264 39.008371 -0.000003 109.444656 -0.000012 -43.730406 -7.909613 -56.784147 8.377137 -4.904139 11.021998 21.620197 -18.183914 -18.379211 -0.702856 -49.821206 -32.535121 -0.000000 0.000001 -0.000001 -0.920406 1.685329 12.435141 0.748103 -2.533463 32.898293 0.615637 -2.316066 29.767829 0.000000 -0.000000 -0.000001 -5.657378 35.474930 14.378938 22.668995 6.344261 -3.067599 -16.232223 15.364678 22.407588 9.872803 13.048643 33.834712 -0.000001 -0.000001 0.000005 -37.998347 -41.685761 -49.676871 30.086287 -17.882084 -4.125509 -6.965965 5.131546 20.654226 1.403920 -0.002338 0.005355 -0.000000 0.000002 0.000000 
10.077675 11.621788 20.660637 82.228852 -4.499519 0.122673 5.865577 -1.455264 -0.769858 -4.490654 -5.973396 1.104512 -3.962229 -6.216028 0.268486 -32.845639 -1.699415 16.069229 -4.781210 25.582484 -5.475405 -0.000004 0.000000 0.000000 -31.971559 -38.918090 30.463771 -79.139565 -11.634407 -42.319784 0.000007 -47.422888 0.000005 -118.063809 17.188581 24.043880 -0.212824 3.933707 -36.747128 2.942140 5.078916 -60.144597 0.513672 2.400826 -24.150509 0.000000 -0.000001 0.000002 3.714598 9.495008 1.954056 18.091778 -1.344837 7.527716 -4.340189 -9.394491 1.104366 -0.000002 -0.000002 0.000000 -20.863622 19.429921 15.536454 -54.681733 49.487975 38.418195 0.000056 109.952249 -0.000044 -43.395713 -7.934649 -56.686950 8.377137 -4.904140 11.021998 21.620197 -18.183914 -18.379211 -0.702856 -49.821210 -32.535128 -0.000001 -0.000001 -0.000002 -0.920409 1.685313 12.435135 0.748100 -2.533476 32.898286 0.615635 -2.316066 29.767826 -0.000000 -0.000001 -0.000000 -5.691099 35.357311 14.695039 23.011116 6.484673 -3.517757 -16.583870 15.465408 21.855979 9.916723 13.004590 33.665080 0.000000 0.000000 -0.000001 -37.648320 -41.879011 -49.704817 29.742407 -17.312380 -4.115581 -7.426985 4.876897 21.801672 0.636212 -0.066703 1.311703 0.000000 0.000000 0.000000 
10.092838 11.635620 20.586884 82.225417 -4.494640 0.080001 5.865735 -1.452976 -0.764977 -4.492806 -5.973761 1.107995 -3.963551 -6.215612 0.271705 -32.840817 -1.668660 16.070108 -5.328748 25.576996 -5.324312 -0.000001 0.000000 0.000000 -32.328108 -38.609188 29.899846 -79.284651 -12.283497 -42.790193 0.000010 -47.393300 0.000009 -117.598140 17.181744 23.857803 -0.212816 3.933720 -36.747114 2.942137 5.078906 -60.144610 0.513664 2.400826 -24.150502 0.000003 -0.000001 0.000002 3.771674 9.069095 1.659298 18.114865 -1.330347 7.495207 -4.324349 -9.015513 1.181798 -0.000002 0.000000 -0.000000 -20.876664 19.499652 15.424650 -54.358197 49.003097 38.175068 0.000024 110.290206 -0.000053 -43.148040 -8.002129 -56.550025 8.377137 -4.904140 11.021998 21.620197 -18.183910 -18.379211 -0.702858 -49.821206 -32.535125 0.000000 -0.000002 -0.000001 -0.920417 1.685307 12.435136 0.748109 -2.533455 32.898289 0.615631 -2.316067 29.767829 -0.000000 -0.000000 0.000000 -5.736563 35.257245 14.982117 23.419949 6.653377 -3.911924 -17.164861 15.533653 21.383266 9.964706 12.966396 33.499981 -0.000001 0.000001 0.000001 -37.281317 -42.098878 -49.702224 29.310381 -16.783166 -4.103841 -7.805863 4.655779 22.848439 -0.179501 -0.191522 2.623295 0.000000 -0.000000 -0.000001 
10.130619 11.647652 20.553795 82.222125 -4.488702 0.029831 5.866853 -1.448436 -0.724134 -4.492602 -5.973000 1.128265 -3.962648 -6.215181 0.292171 -32.870531 -1.660065 16.070491 -5.614117 25.574641 -5.242986 -0.000003 0.000000 -0.000000 -32.465528 -38.490039 29.683152 -79.300101 -12.432794 -42.883712 0.000026 -47.623624 0.000023 -117.457261 17.142259 23.865429 -0.212821 3.933714 -36.747128 2.942136 5.078906 -60.144617 0.513668 2.400829 -24.150494 0.000004 0.000000 -0.000002 3.945182 8.521556 1.441982 18.331270 -1.350267 7.476622 -4.326783 -8.579211 1.326901 -0.000003 0.000001 -0.000001 -20.878184 19.498032 15.429192 -54.275053 48.953448 38.200097 0.000052 110.404899 -0.000046 -42.913710 -8.124559 -56.462855 8.377137 -4.904140 11.021999 21.620197 -18.183914 -18.379211 -0.702858 -49.821210 -32.535128 -0.000002 -0.000001 0.000003 -0.920404 1.685324 12.435127 0.748116 -2.533470 32.898293 0.615647 -2.316053 29.767829 0.000000 -0.000000 0.000001 -5.823908 35.171625 15.279319 23.850723 6.806682 -4.275334 -17.702580 15.594352 20.944919 10.001180 12.918035 33.331948 0.000001 0.000002 -0.000003 -36.895374 -42.353481 -49.648676 28.750616 -16.328718 -4.092699 -8.031175 4.479215 23.720253 -0.954738 -0.359627 3.820337 -0.000001 -0.000000 -0.000000 
